<svg preserveAspectRatio="none" width="100%" height="100%" overflow="visible" style="display: block;" viewBox="0 0 24 24" fill="none" xmlns="http://www.w3.org/2000/svg">
<g id="cat 1">
<path id="Vector" fill-rule="evenodd" clip-rule="evenodd" d="M4.02218 7.72309C4.1021 7.65223 4.1839 7.5827 4.26757 7.51453C5.29708 6.67567 6.57187 6.0726 8.05863 5.70271C7.76864 5.08804 7.40301 4.50777 6.99832 4.03644C6.40055 3.34026 5.8478 3.02542 5.43669 2.97364C5.43051 2.98064 5.42378 2.9885 5.41652 2.99729C5.30187 3.136 5.15367 3.39198 4.99145 3.79415C4.67087 4.58893 4.38694 5.71994 4.15228 6.98118C4.10666 7.22638 4.0633 7.47429 4.02218 7.72309ZM1.45932 13.5315C1.45529 13.495 1.45322 13.458 1.45322 13.4204C1.45322 12.1553 1.69965 9.22958 2.18603 6.61536C2.42865 5.31126 2.74133 4.02608 3.13666 3.04599C3.3324 2.56073 3.57199 2.08962 3.87496 1.72309C4.17047 1.36557 4.64904 0.965881 5.31691 0.965881C6.6098 0.965881 7.7193 1.80603 8.51571 2.73355C9.15934 3.48316 9.70308 4.40671 10.0895 5.35489C10.6998 5.29249 11.3368 5.26135 11.9987 5.26135C12.6631 5.26135 13.3012 5.29767 13.9117 5.36861C14.2967 4.42336 14.8375 3.50085 15.4773 2.75038C16.2729 1.81703 17.385 0.965881 18.6834 0.965881C19.3513 0.965881 19.8298 1.36558 20.1253 1.72309C20.4283 2.08963 20.6679 2.56074 20.8636 3.046C21.2589 4.02609 21.5716 5.31127 21.8142 6.61537C22.3006 9.22959 22.547 12.1553 22.547 13.4204C22.547 13.4666 22.5438 13.512 22.5378 13.5565C22.542 13.6697 22.5441 13.7834 22.5441 13.8977C22.5441 15.1643 22.3516 16.3975 21.893 17.5194L22.7847 17.8166C23.2563 17.9738 23.5111 18.4835 23.3539 18.955C23.1967 19.4266 22.687 19.6814 22.2155 19.5243L20.9911 19.1161C20.9751 19.1374 20.959 19.1586 20.9427 19.1798L22.1834 20.4204C22.5348 20.7719 22.5348 21.3417 22.1834 21.6932C21.8319 22.0447 21.262 22.0447 20.9106 21.6932L19.671 20.4536C17.9293 21.8081 15.4023 22.5341 11.9987 22.5341C8.73548 22.5341 6.25988 21.9599 4.51527 20.7519L3.57399 21.6932C3.22252 22.0447 2.65267 22.0447 2.3012 21.6932C1.94973 21.3417 1.94973 20.7719 2.3012 20.4204L3.18144 19.5402C3.07731 19.4156 2.97857 19.288 2.88506 19.1575L1.7847 19.5243C1.31315 19.6814 0.803466 19.4266 0.646283 18.955C0.4891 18.4835 0.743944 17.9738 1.21549 17.8166L2.0338 17.5438C1.62334 16.4425 1.45322 15.2104 1.45322 13.8977C1.45322 13.7747 1.45525 13.6526 1.45932 13.5315ZM20.0142 7.9456C19.9626 7.62222 19.9072 7.29942 19.848 6.98117C19.6133 5.71993 19.3294 4.58892 19.0088 3.79415C18.8466 3.39198 18.6984 3.13599 18.5838 2.99729C18.5765 2.98854 18.5698 2.98072 18.5637 2.97374C18.1536 3.02609 17.5995 3.3438 16.9992 4.04789C16.5877 4.53061 16.2169 5.1256 15.925 5.75337C17.4326 6.16628 18.7161 6.82964 19.7466 7.7075C19.838 7.78536 19.9272 7.86475 20.0142 7.9456ZM8.73057 13.4205C8.73057 14.2489 8.05899 14.9205 7.23057 14.9205C6.40214 14.9205 5.73057 14.2489 5.73057 13.4205C5.73057 12.592 6.40214 11.9205 7.23057 11.9205C8.05899 11.9205 8.73057 12.592 8.73057 13.4205ZM18.2696 13.4205C18.2696 14.2489 17.5981 14.9205 16.7696 14.9205C15.9412 14.9205 15.2696 14.2489 15.2696 13.4205C15.2696 12.592 15.9412 11.9205 16.7696 11.9205C17.5981 11.9205 18.2696 12.592 18.2696 13.4205ZM13.4962 15.8068C13.4962 16.1526 13.3792 16.4711 13.1826 16.7248C13.2035 16.7806 13.2256 16.8367 13.2488 16.8925C13.3789 17.2046 13.5244 17.4554 13.6706 17.6149C13.7961 17.7518 13.8693 17.7683 13.9008 17.7702C13.9008 17.7702 13.957 17.7561 14.0666 17.683C14.119 17.648 14.1645 17.6117 14.1963 17.5844C14.2118 17.5712 14.2228 17.5611 14.2286 17.5557L14.2321 17.5524C14.584 17.2053 15.1505 17.2068 15.5005 17.5568C15.852 17.9083 15.852 18.4781 15.5005 18.8296L15.4991 18.8309C15.4851 18.8446 15.4711 18.8583 15.4567 18.8717C15.4345 18.8924 15.4045 18.9196 15.3678 18.9511C15.2952 19.0133 15.1916 19.0963 15.065 19.1807C14.8412 19.3299 14.4187 19.5705 13.9095 19.5705C13.2188 19.5705 12.697 19.2166 12.3438 18.8312C12.2156 18.6913 12.1017 18.5395 12.0005 18.3832C11.8992 18.5395 11.7853 18.6913 11.6571 18.8312C11.3039 19.2166 10.7821 19.5705 10.0914 19.5705C9.5822 19.5705 9.15968 19.3299 8.93588 19.1807C8.80934 19.0963 8.70567 19.0133 8.63313 18.9511C8.5964 18.9196 8.56641 18.8924 8.54417 18.8717C8.16995 18.5224 8.12891 17.9283 8.50042 17.5568C8.85041 17.2068 9.41693 17.2053 9.76875 17.5524L10.0906 17.7703C10.1029 17.7685 10.1152 17.7669 10.1277 17.7655C10.167 17.7548 10.2329 17.7211 10.3303 17.6149C10.4765 17.4554 10.622 17.2046 10.7521 16.8925C10.7743 16.8392 10.7954 16.7856 10.8155 16.7321C10.6155 16.4772 10.4962 16.156 10.4962 15.8068C10.4962 14.9784 11.1678 14.3068 11.9962 14.3068C12.8246 14.3068 13.4962 14.9784 13.4962 15.8068Z" fill="var(--fill-0, #FFF7ED)"/>
</g>
</svg>
